<svg width="44" height="48" viewBox="0 0 44 48" fill="none" xmlns="http://www.w3.org/2000/svg">
<path d="M39.0644 30.098H44V26H29.733C29.4735 30.2521 25.9028 33.626 21.5381 33.626C17.1734 33.626 13.6027 30.2521 13.3432 26H-1.49006e-05L-1.52588e-05 30.098H4.07406C4.29203 30.9402 4.57747 31.767 4.92001 32.5784C5.30925 33.4925 5.77116 34.3655 6.30572 35.1923L2.74025 38.7203L8.35573 44.2768L11.9264 40.7437C12.7516 41.2624 13.6235 41.7143 14.5317 42.0943C15.5541 42.5205 16.6077 42.8543 17.682 43.0854V48H25.6329V43.0443C26.645 42.8133 27.6362 42.4949 28.6015 42.0943C29.5773 41.6886 30.5062 41.2007 31.3833 40.6359L34.8917 44.1074L40.5124 38.5457L36.9469 35.0177C37.4348 34.2423 37.8552 33.4258 38.2184 32.5784C38.561 31.767 38.8464 30.9402 39.0644 30.098Z" fill="#1C2752"/>
<path d="M36.9436 8.17054V16.4455C36.9436 17.0071 36.4796 17.4627 35.9078 17.4627H35.1741C34.6022 17.4627 34.1383 17.0071 34.1383 16.4455V6.01968C32.0127 4.63169 29.6282 3.59334 27.0711 3V17.3567C27.0711 17.9183 26.6071 18.3739 26.0353 18.3739H17.9431C17.3712 18.3739 16.9073 17.9183 16.9073 17.3567V3C14.3825 3.59334 11.998 4.64228 9.87248 6.01968V16.4455C9.87248 17.0071 9.40853 17.4627 8.83668 17.4627H8.10299C7.53114 17.4627 7.06718 17.0071 7.06718 16.4455V8.17054C2.72977 12.112 0 17.7381 0 24H44C44.0108 17.7381 41.2918 12.112 36.9436 8.17054Z" fill="#FFB342"/>
<path d="M25 15.6436C25 16.1171 24.653 16.5 24.2164 16.5H19.7836C19.3582 16.5 19 16.1171 19 15.6436V1.35642C19 0.882871 19.347 0.5 19.7836 0.5H24.2164C24.6418 0.5 25 0.882871 25 1.35642V15.6436Z" fill="#FFB342"/>
</svg>
