<svg width="44" height="48" viewBox="0 0 44 48" fill="none" xmlns="http://www.w3.org/2000/svg">
<path d="M39.0644 29.598H44V25.5H29.733C29.4735 29.7521 25.9028 33.126 21.5381 33.126C17.1734 33.126 13.6027 29.7521 13.3432 25.5H-1.49006e-05L-1.52588e-05 29.598H4.07406C4.29203 30.4402 4.57747 31.267 4.92001 32.0784C5.30925 32.9925 5.77116 33.8655 6.30572 34.6923L2.74025 38.2203L8.35573 43.7768L11.9264 40.2437C12.7516 40.7624 13.6235 41.2143 14.5317 41.5943C15.5541 42.0205 16.6077 42.3543 17.682 42.5854V47.5H25.6329V42.5443C26.645 42.3133 27.6362 41.9949 28.6015 41.5943C29.5773 41.1886 30.5062 40.7007 31.3833 40.1359L34.8917 43.6074L40.5124 38.0457L36.9469 34.5177C37.4348 33.7423 37.8552 32.9258 38.2184 32.0784C38.561 31.267 38.8464 30.4402 39.0644 29.598Z" fill="white"/>
<path d="M36.9436 7.67054V15.9455C36.9436 16.5071 36.4796 16.9627 35.9078 16.9627H35.1741C34.6022 16.9627 34.1383 16.5071 34.1383 15.9455V5.51968C32.0127 4.13169 29.6282 3.09334 27.0711 2.5V16.8567C27.0711 17.4183 26.6071 17.8739 26.0353 17.8739H17.9431C17.3712 17.8739 16.9073 17.4183 16.9073 16.8567V2.5C14.3825 3.09334 11.998 4.14228 9.87248 5.51968V15.9455C9.87248 16.5071 9.40853 16.9627 8.83668 16.9627H8.10299C7.53114 16.9627 7.06718 16.5071 7.06718 15.9455V7.67054C2.72977 11.612 0 17.2381 0 23.5H44C44.0108 17.2381 41.2918 11.612 36.9436 7.67054Z" fill="#FFB342"/>
<path d="M25 15.1436C25 15.6171 24.653 16 24.2164 16H19.7836C19.3582 16 19 15.6171 19 15.1436V0.856423C19 0.382871 19.347 0 19.7836 0H24.2164C24.6418 0 25 0.382871 25 0.856423V15.1436Z" fill="#FFB342"/>
</svg>
