<svg width="68" height="68" viewBox="0 0 68 68" fill="none" xmlns="http://www.w3.org/2000/svg">
<path d="M0 34C0 15.2223 15.2223 0 34 0C52.7777 0 68 15.2223 68 34C68 52.7777 52.7777 68 34 68C15.2223 68 0 52.7777 0 34Z" fill="#FFB342"/>
<g clip-path="url(#clip0_1_1008)">
<path d="M46.1885 41.3734C45.1959 40.3734 42.7921 38.9141 41.6259 38.326C40.1071 37.5611 39.9821 37.4986 38.7883 38.3854C37.992 38.9772 37.4626 39.506 36.5307 39.3072C35.5988 39.1085 33.5738 37.9879 31.8006 36.2205C30.0275 34.4531 28.8418 32.3694 28.6424 31.4407C28.443 30.512 28.9806 29.9889 29.5668 29.1908C30.3931 28.0658 30.3306 27.8783 29.6243 26.3597C29.0737 25.1785 27.5718 22.7973 26.568 21.8099C25.4942 20.7493 25.4942 20.9368 24.8023 21.2243C24.239 21.4612 23.6986 21.7493 23.1879 22.0848C22.1879 22.7492 21.6329 23.301 21.2447 24.1304C20.8566 24.9597 20.6822 26.904 22.6866 30.5451C24.6911 34.1862 26.0974 36.048 29.008 38.9504C31.9187 41.8527 34.1569 43.4133 37.4289 45.2482C41.4765 47.515 43.029 47.0731 43.8609 46.6857C44.6928 46.2982 45.2472 45.7482 45.9128 44.7482C46.2493 44.2384 46.538 43.6986 46.7754 43.1358C47.0635 42.4465 47.251 42.4465 46.1885 41.3734Z" stroke="#1C2752" stroke-width="2" stroke-miterlimit="10"/>
</g>
<defs>
<clipPath id="clip0_1_1008">
<rect width="28" height="28" fill="white" transform="translate(20 20)"/>
</clipPath>
</defs>
</svg>
